<svg xmlns="http://www.w3.org/2000/svg" width="1024" height="1024" viewBox="0 0 1024 1024">
    <g transform="translate(-11.264 -9.984) scale(1.024)">
<defs>
        <linearGradient id="gradient_0" gradientUnits="userSpaceOnUse" x1="506.0328" y1="526.8075" x2="518.6788" y2="144.4779">
            <stop offset="0" stop-color="#B40000" />
            <stop offset="1" stop-color="#FC3838" />
        </linearGradient>
    </defs>
    <path fill="url(#gradient_0)" d="M227.22 154.09L648.18 154.16L817.88 154.2L875.23 154.22C899.89 154.19 925.26 152.19 947.55 164.72C960.43 170.1 966.35 175.09 976.01 184.46C988.49 196.57 994.79 204.91 1001.41 221.05C1010.29 242.68 1009.91 260.14 1009.92 282.78L1009.94 326.11L1010.09 467.33C1010.09 472.19 1009.75 509.52 1010.38 511.37L1010.43 514.14C1011.25 567.31 1010.51 622.44 1010.53 675.72L1010.54 728.46C1010.54 746.96 1011.23 763.93 1007.49 782.2C999.53 821.11 970.18 851.27 932.1 861.87C922.5 864.54 913.85 864.93 903.87 864.98L346.32 865.02L184 865.21L137.69 865.14C127.05 865.12 113.96 865.39 103.47 863.97C80.29 860.83 59.3 850.82 42.54 834.36C29.1 821.17 17.66 796.49 13.88 778.11C10.55 761.95 11.01 744.8 11.06 728.4L11.16 683.69L11.1 511.73C12.14 484.69 11.37 452.61 11.35 425.17L11.48 278.72C11.51 243.09 17.84 210.71 44.32 184.52C57.9 171.25 74.79 161.85 93.22 157.29C110.3 153.07 139.99 154.01 158.23 154.01L227.22 154.09Z" />
    <path fill="#EBEAEA" d="M11.1 511.73C18.52 511.08 29.2 511.38 36.9 511.38L80.36 511.42L218.34 511.41L761.86 511.43L930.86 511.44L984.38 511.46C991.13 511.46 1004.26 511.88 1010.38 511.37L1010.43 514.14C1011.25 567.31 1010.51 622.44 1010.53 675.72L1010.54 728.46C1010.54 746.96 1011.23 763.93 1007.49 782.2C999.53 821.11 970.18 851.27 932.1 861.87C922.5 864.54 913.85 864.93 903.87 864.98L346.32 865.02L184 865.21L137.69 865.14C127.05 865.12 113.96 865.39 103.47 863.97C80.29 860.83 59.3 850.82 42.54 834.36C29.1 821.17 17.66 796.49 13.88 778.11C10.55 761.95 11.01 744.8 11.06 728.4L11.16 683.69L11.1 511.73Z" />
    <path fill="#F93130" d="M227.22 154.09L648.18 154.16L817.88 154.2L875.23 154.22C899.89 154.19 925.26 152.19 947.55 164.72C945.25 165.86 935.86 159.73 932.62 159.61C932.2 159.59 927.96 158.44 927.52 158.26C928.26 160.45 931.7 161.54 933.82 162.1C947.73 165.73 957.13 179.28 965.96 189.74C968.22 192.45 970.16 198.6 971.18 201.71C970.35 202.38 970.45 202.31 969.58 202.81C969.59 204.25 969.6 204.36 969.92 205.75L969.46 206.1C968.6 205.47 967.99 205.03 967.22 204.3C965.86 205.86 966.16 206.02 964.51 206.51C958.66 203.96 953.09 201.75 947.4 205.86L944.75 204.86C940.22 207.24 930.55 210.78 925.79 208.41C918.68 204.87 910.87 206.5 903.23 207.45C900.3 207.81 895.3 212.13 892.02 212.12C887.69 213 884.68 210.18 881.52 209.82C877.28 209.32 875.73 210.91 870.9 208.38C868.72 207.25 862.13 206.69 859.52 206.26C857.21 206.02 855.67 207.15 853.71 208.34C847.89 207.6 842.46 206.62 837.26 210.92C832.09 215.2 828.85 218.7 821.28 217.79C815.98 217.16 810.77 215.05 805.04 216.47C801.87 217.25 798.26 222.04 793.97 221.69C787.26 221.15 782.06 215.44 774.9 215.32C774.38 215.31 772.05 216.92 771.46 217.32C770.45 216.67 770.51 216.66 769.63 215.83L768.99 215.89L767.68 219.16C764.39 218.45 762.89 216.64 759.49 216.62C754.67 216.6 752.63 220.1 751.62 214.61C749.86 213.66 747.31 215.07 745.58 215.85L744.76 215.66C736.48 213.74 734.94 220.18 727.01 220.2C721.98 220.21 716.97 214.06 711.74 213.89C703.1 213.67 695.44 217.91 686.69 218.39C680.51 218.72 676.71 214.22 671.46 216.53C670.39 217 668.8 213.24 667.8 213.48C661.36 213.62 654.38 215.52 647.92 216.19C645.11 216.48 640.62 214.03 638.28 214.3C635.21 217.05 637.42 216.41 632.36 216.55C626.46 216.71 619.35 217.55 613.47 215.81C613.32 215.76 610.95 217.31 610.49 217.63C607.45 219.61 594.81 219.44 591.38 219.17C589.71 219.04 576.55 213.36 573.98 213.46C563.63 213.86 550.81 215.19 540.34 215.74C531.53 216.21 529.13 213.63 520.74 212.93C520.66 212.93 519.5 214.44 519.47 214.49C517.21 213.09 517.75 212.94 516 213.32C512.53 214.01 508.66 215.93 505.16 216.19C502.26 216.4 485.43 213.5 483.95 214.31C475.17 219.1 473.87 213.12 464.41 213.75C460.47 214.02 457.06 216.04 453.21 216.86C450.65 217.24 445.5 214.43 443.47 214.58C435.05 215.19 428.24 216.28 419.72 215.09C419.5 214.91 417.12 212.97 417.12 212.97C407.45 211.75 398.31 208.92 388.51 209.83C382.24 210.42 375.62 212.28 369.73 210.44C369.7 210.43 366.68 211.47 366.56 211.56C361.87 211.34 340.57 211.39 337.9 210.48L337.6 208.88C336.56 208.53 336.7 208.34 335.76 208.82C331.61 210.91 327.74 208.46 323.73 209.53C320.08 210.52 316.66 212.51 313.17 214.31C308.19 216.89 300.54 218.6 295.07 219.42C293.78 219.62 287.05 218.28 285.6 217.91C285.43 216.53 285.38 217.04 285.94 215.73C284.04 212.89 279.54 206.51 276.65 205.85C276.05 205.71 275.02 205.05 274.52 204.62C276.73 203.15 278.08 202.1 280.11 200.46C275.62 199.34 272.41 199.09 267.85 198.64C270.38 198.4 272.11 198.9 272.84 196.41C271.49 193.35 270.26 189.83 267.25 187.92C261.72 184.42 254.52 183.09 247.74 183.38C231.56 183.73 215.63 189.18 199.89 191.61C186.07 193.73 178.74 194.46 165.36 200.07L164.43 199.02C161.8 200.47 161.55 202.37 159.06 203.78L158.13 202.48C154.78 204.61 142.93 211.2 138.19 208.82C137.17 208.31 136.69 208.01 135.59 207.75C132.37 208.62 117.23 212.45 114.39 209.6C111.61 206.82 109 207.59 105.37 207.3C104.31 206.48 101.48 204.41 100.32 204.13C95.73 203.02 87.06 205.59 83.1 203.23C82.67 202.92 81.83 202.46 81.27 202.59C76.13 203.76 71.38 204.43 66.13 204.85C65.27 203.93 64.39 203.02 63.49 202.13C61.38 202.15 60.55 202.39 58.45 202.84C58.42 201.03 58.82 198.95 58.35 197.42L57.59 198.33L57.17 197.35L58.04 196.32C57.37 195.82 57.75 196.14 56.94 195.3C58.4 178.12 76.78 173.65 88.82 165.85C90.06 165.05 90.75 163.92 91.84 162.99C93.26 161.8 117.69 160.35 121.13 160.33C126.17 160.31 131.24 161.1 136.26 160.81C145.19 160.29 154.24 158.56 163.15 157.62C171.33 156.76 179.9 156.7 188.13 156.75C193.31 156.78 197.87 159.39 202.94 159.88C208.7 160.44 215.36 159.1 220.92 160.24C221.52 160.36 222.01 160.54 222.63 160.55C227.36 160.62 241.64 158.95 244.71 155.85C239.37 154.88 230.76 156.3 227.22 154.09Z" />
    <path fill="#EBEAEA" d="M279.66 461.05C271.7 462.77 264.23 462.9 256.14 463C215.46 463.52 180.28 449.45 151.62 420.08C128.09 396.13 115.18 363.74 115.78 330.17C116.19 294.37 131.09 260.27 157.08 235.64C189.01 204.79 225.62 198.02 267.85 198.64C272.41 199.09 275.62 199.34 280.11 200.46C278.08 202.1 276.73 203.15 274.52 204.62C270.85 206.7 267.11 209.49 263.6 211.86C219.84 241.41 192.19 292.73 198.49 346.51C203.17 384.49 222.63 419.09 252.67 442.81C261.2 449.51 271.89 454.62 279.66 461.05Z" />
    <path fill="#EBEAEA" d="M417.64 277.74C420.27 279.3 425.13 298.25 426.39 302.54C433.87 302.51 445.34 302.18 452.46 302.96C447.49 307.66 437.9 313.95 431.9 318.72C434.43 327.06 437.08 335.53 439.29 343.95C433.72 341 423.91 333.43 418.75 329.55C416.96 329.26 399.74 342.37 396.81 344.31C398.21 336.92 401.62 326.38 403.91 318.94C397.83 313.27 389.88 308.87 383.29 302.68C391.51 302.3 400.99 302.5 409.31 302.5C411.61 296.05 414.92 283.21 417.64 277.74Z" />
    <path fill="#EBEAEA" d="M351.23 224.31C353.44 226.16 358.51 244.47 359.77 248.6C367.92 248.54 377.79 248.24 385.78 249.17C381.87 253.09 370.18 261.24 365.2 264.89C367.82 273.43 370.28 282.01 372.57 290.64C365.23 285.81 358.72 280.36 351.44 275.54C344.39 280.22 337.71 285.94 330.26 290.79C331.97 282.76 335.06 272.96 337.36 264.94C334.28 262.45 319.62 252.42 319.34 249.77C321.56 247.74 339.02 248.55 342.79 248.57C344.87 242.29 348.6 229.87 351.23 224.31Z" />
    <path fill="#EBEAEA" d="M283.5 277.8C286.12 279.98 290.81 297.87 292.26 302.56C300.51 302.53 309.93 302.31 318.07 302.79C313.66 307.29 303.31 314.22 297.64 318.92C300.1 325.54 303.44 337.25 305.32 344.07C299.65 341.03 289.69 333.42 284.25 329.45C282.6 329.55 265.9 342.37 262.5 344.43C264.18 336.82 267.59 326.56 269.9 318.9C264.31 314.26 257.35 309.8 251.95 304.98C251.29 304.39 251.46 304.44 251.59 303.43C254.46 301.95 270.88 302.49 275.2 302.51C276.32 298.05 281.27 281.46 283.5 277.8Z" />
    <path fill="#EBEAEA" d="M393.54 358.68C396.24 360.73 400.93 378.6 402.41 383.28C411.12 383.47 419.56 383.18 428.36 383.62C423.21 388.31 413.9 394.81 407.95 399.45C410.57 407.76 413.06 416.1 415.44 424.47C408.92 421.06 400.25 414.28 394.05 409.7C387.61 414.48 379.13 420.9 372.47 425.02C374.35 416.9 377.43 407.65 379.92 399.58C373.62 394.31 365.34 389.32 359.71 383.6C368.01 383.11 376.77 383.3 385.12 383.35C386.91 377.61 390.93 363.79 393.54 358.68Z" />
    <path fill="#EBEAEA" d="M307.12 358.83C309.38 360.85 314.24 378.85 315.74 383.35C324.54 383.54 332.86 382.93 341.75 383.64C335.6 388.8 327.61 394.52 321.1 399.42C323.42 407.08 326.88 417.04 328.53 424.63C323.18 422.11 312.19 413.58 307.37 409.65C304.05 412.13 290.18 423.35 287.46 423.03C286.26 420.15 291.81 404.05 293.1 399.72C287.04 394.07 278.98 389.65 272.7 383.67C280.61 383.02 290.56 383.27 298.6 383.3C300.91 376.89 304.07 364.24 307.12 358.83Z" />
</g>
</svg>
